<svg width="12" height="12" viewBox="0 0 12 12" fill="none" xmlns="http://www.w3.org/2000/svg">
<path d="M6.74999 0.75C6.74999 0.335786 6.4142 0 5.99999 0C5.58578 0 5.24999 0.335786 5.24999 0.75V5.24997H0.75C0.335786 5.24997 0 5.58575 0 5.99997C0 6.41418 0.335786 6.74997 0.75 6.74997H5.24999L5.25 11.25C5.25 11.6642 5.58579 12 6 12C6.41421 12 6.75 11.6642 6.75 11.25L6.74999 6.74997H11.25C11.6642 6.74997 12 6.41418 12 5.99997C12 5.58575 11.6642 5.24997 11.25 5.24997H6.74999V0.75Z" fill="white"/>
</svg>
