<svg width="20" height="20" viewBox="0 0 20 20" fill="none" xmlns="http://www.w3.org/2000/svg">
<path d="M16.6667 4.16663C16.8877 4.16663 17.0996 4.25442 17.2559 4.4107C17.4122 4.56698 17.5 4.77895 17.5 4.99996C17.5 5.22097 17.4122 5.43293 17.2559 5.58921C17.0996 5.74549 16.8877 5.83329 16.6667 5.83329H15.8333L15.8308 5.89246L15.0533 16.785C15.0234 17.2054 14.8352 17.599 14.5268 17.8863C14.2183 18.1736 13.8124 18.3333 13.3908 18.3333H6.60833C6.18678 18.3333 5.78089 18.1736 5.4724 17.8863C5.16392 17.599 4.97576 17.2054 4.94583 16.785L4.16833 5.89329L4.16667 5.83329H3.33333C3.11232 5.83329 2.90036 5.74549 2.74408 5.58921C2.5878 5.43293 2.5 5.22097 2.5 4.99996C2.5 4.77895 2.5878 4.56698 2.74408 4.4107C2.90036 4.25442 3.11232 4.16663 3.33333 4.16663H16.6667ZM11.6667 1.66663C11.8877 1.66663 12.0996 1.75442 12.2559 1.9107C12.4122 2.06698 12.5 2.27895 12.5 2.49996C12.5 2.72097 12.4122 2.93293 12.2559 3.08921C12.0996 3.2455 11.8877 3.33329 11.6667 3.33329H8.33333C8.11232 3.33329 7.90036 3.2455 7.74408 3.08921C7.5878 2.93293 7.5 2.72097 7.5 2.49996C7.5 2.27895 7.5878 2.06698 7.74408 1.9107C7.90036 1.75442 8.11232 1.66663 8.33333 1.66663H11.6667Z" fill="black"/>
</svg>
