<svg width="20" height="21" viewBox="0 0 20 21" fill="none" xmlns="http://www.w3.org/2000/svg">
<path d="M6.66667 7.99998C6.20643 7.99998 5.83333 8.37308 5.83333 8.83331C5.83333 9.29355 6.20643 9.66665 6.66667 9.66665H13.3333C13.7936 9.66665 14.1667 9.29355 14.1667 8.83331C14.1667 8.37308 13.7936 7.99998 13.3333 7.99998H6.66667Z" fill="#5C5E64"/>
<path d="M6.66667 11.3333C6.20643 11.3333 5.83333 11.7064 5.83333 12.1666C5.83333 12.6269 6.20643 13 6.66667 13H10C10.4602 13 10.8333 12.6269 10.8333 12.1666C10.8333 11.7064 10.4602 11.3333 10 11.3333H6.66667Z" fill="#5C5E64"/>
<path d="M6.66667 14.6666C6.20643 14.6666 5.83333 15.0397 5.83333 15.5C5.83333 15.9602 6.20643 16.3333 6.66667 16.3333H13.3333C13.7936 16.3333 14.1667 15.9602 14.1667 15.5C14.1667 15.0397 13.7936 14.6666 13.3333 14.6666H6.66667Z" fill="#5C5E64"/>
<path fill-rule="evenodd" clip-rule="evenodd" d="M17.399 4.7813C17.3319 4.61899 17.2335 4.47153 17.1093 4.34739L14.4863 1.72442C14.2365 1.47431 13.8976 1.33362 13.5441 1.33331H3.83333C3.47971 1.33331 3.14057 1.47379 2.89052 1.72384C2.64048 1.97389 2.5 2.31302 2.5 2.66665V18.3333C2.5 18.5084 2.53449 18.6818 2.60149 18.8436C2.6685 19.0053 2.76671 19.1523 2.89052 19.2761C3.01433 19.3999 3.16132 19.4981 3.32309 19.5652C3.48486 19.6322 3.65824 19.6666 3.83333 19.6666H16.1667C16.3418 19.6666 16.5151 19.6322 16.6769 19.5652C16.8387 19.4981 16.9857 19.3999 17.1095 19.2761C17.2333 19.1523 17.3315 19.0053 17.3985 18.8436C17.4655 18.6818 17.5 18.5084 17.5 18.3333V5.2919L16.6667 5.29165L17.5 5.29369L17.5 5.2919C17.5002 5.11672 17.4659 4.94321 17.399 4.7813ZM12.5 5.08331C12.5 5.77367 13.0596 6.33331 13.75 6.33331H15.8333V18H4.16667V2.99998H12.5V5.08331ZM15.0715 4.66665L14.1667 3.76182V4.66665H15.0715Z" fill="#5C5E64"/>
</svg>
