<svg width="20" height="21" viewBox="0 0 20 21" fill="none" xmlns="http://www.w3.org/2000/svg">
<path fill-rule="evenodd" clip-rule="evenodd" d="M13.0003 2.16667C12.6467 2.16667 12.3076 2.30714 12.0575 2.55719C11.8075 2.80724 11.667 3.14638 11.667 3.5V7.16667H8.00032C7.64671 7.16667 7.30757 7.30714 7.05752 7.55719C6.80746 7.80724 6.66699 8.14638 6.66699 8.5V13H3.00033C2.6467 13 2.30757 13.1405 2.05752 13.3905C1.80747 13.6406 1.66699 13.9797 1.66699 14.3333V17.5C1.66699 17.8536 1.80747 18.1928 2.05752 18.4428C2.30757 18.6929 2.6467 18.8333 3.00033 18.8333H17.0003C17.3539 18.8333 17.6931 18.6929 17.9431 18.4428C18.1932 18.1928 18.3337 17.8536 18.3337 17.5V3.5C18.3337 3.14638 18.1932 2.80724 17.9431 2.55719C17.6931 2.30714 17.3539 2.16667 17.0003 2.16667H13.0003ZM8.33366 8.83333H11.667V17.1667H8.33366V8.83333ZM16.667 17.1667H13.3337V3.83333H16.667V17.1667ZM6.66699 14.6667V17.1667H3.33366V14.6667H6.66699Z" fill="#5C5E64"/>
</svg>
